HIERARCHY
ROOT Hips
{
 OFFSET 0.000000 0.000000 0.000000
 CHANNELS 6 Xposition Yposition Zposition Yrotation Xrotation Zrotation
 JOINT Chest
 {
  OFFSET 0.000000 9.588913 -0.003946
  CHANNELS 3 Yrotation Xrotation Zrotation
  JOINT Chest2
  {
   OFFSET 0.000000 9.541882 0.008053
   CHANNELS 3 Yrotation Xrotation Zrotation
   JOINT Chest3
   {
    OFFSET 0.000000 9.501360 0.000000
    CHANNELS 3 Yrotation Xrotation Zrotation
    JOINT Chest4
    {
     OFFSET 0.000000 9.491660 0.000000
     CHANNELS 3 Yrotation Xrotation Zrotation
     JOINT Neck
     {
      OFFSET 0.000000 14.331917 0.000000
      CHANNELS 3 Yrotation Xrotation Zrotation
      JOINT Head
      {
       OFFSET 0.000000 8.884799 0.017034
       CHANNELS 3 Yrotation Xrotation Zrotation
       End Site
       {
        OFFSET 0.000000 16.896195 0.008993
       }
      }
     }
     JOINT RightCollar
     {
      OFFSET -2.923010 9.499495 0.000000
      CHANNELS 3 Yrotation Xrotation Zrotation
      JOINT RightShoulder
      {
       OFFSET -13.795216 0.000000 0.000000
       CHANNELS 3 Yrotation Xrotation Zrotation
       JOINT RightElbow
       {
        OFFSET -30.272209 0.000000 0.000000
        CHANNELS 3 Yrotation Xrotation Zrotation
        JOINT RightWrist
        {
         OFFSET -24.478199 0.000000 0.000000
         CHANNELS 3 Yrotation Xrotation Zrotation
         End Site
         {
          OFFSET -18.090752 0.000000 0.000000
         }
        }
       }
      }
     }
     JOINT LeftCollar
     {
      OFFSET 2.923010 9.499495 0.000000
      CHANNELS 3 Yrotation Xrotation Zrotation
      JOINT LeftShoulder
      {
       OFFSET 13.795216 0.000000 0.000000
       CHANNELS 3 Yrotation Xrotation Zrotation
       JOINT LeftElbow
       {
        OFFSET 30.272209 0.000000 0.000000
        CHANNELS 3 Yrotation Xrotation Zrotation
        JOINT LeftWrist
        {
         OFFSET 24.478199 0.000000 0.000000
         CHANNELS 3 Yrotation Xrotation Zrotation
         End Site
         {
          OFFSET 18.090752 0.000000 0.000000
         }
        }
       }
      }
     }
    }
   }
  }
 }
 JOINT RightHip
 {
  OFFSET -7.826875 0.019532 0.001973
  CHANNELS 3 Yrotation Xrotation Zrotation
  JOINT RightKnee
  {
   OFFSET 0.000000 -40.546152 -0.001885
   CHANNELS 3 Yrotation Xrotation Zrotation
   JOINT RightAnkle
   {
    OFFSET 0.000000 -39.417092 -0.003189
    CHANNELS 3 Yrotation Xrotation Zrotation
    JOINT RightToe
    {
     OFFSET 0.000000 -7.579396 17.243563
     CHANNELS 3 Yrotation Xrotation Zrotation
     End Site
     {
      OFFSET 0.000000 -1.500329 6.694466
     }
    }
   }
  }
 }
 JOINT LeftHip
 {
  OFFSET 7.826875 0.019532 0.001973
  CHANNELS 3 Yrotation Xrotation Zrotation
  JOINT LeftKnee
  {
   OFFSET 0.000000 -40.546152 -0.001885
   CHANNELS 3 Yrotation Xrotation Zrotation
   JOINT LeftAnkle
   {
    OFFSET 0.000000 -39.417092 -0.003189
    CHANNELS 3 Yrotation Xrotation Zrotation
    JOINT LeftToe
    {
     OFFSET 0.000000 -7.579396 17.243563
     CHANNELS 3 Yrotation Xrotation Zrotation
     End Site
     {
      OFFSET 0.000000 -1.500329 6.694466
     }
    }
   }
  }
 }
}
MOTION
Frames: 10
Frame Time: 0.008333
0.000000 87.345680 0.000000 0.000000 -5.767889 0.000000 0.000000 11.653876 0.000000 0.000000 -5.885988 0.000000 0.000000 -0.000000 0.000000 0.000000 -0.000000 0.000000 0.000000 12.528808 0.000000 0.000000 0.711711 0.000000 0.000000 -0.000000 0.000000 0.000000 -0.000000 0.000000 2.309063 -0.000000 0.000000 -2.309063 -0.000000 -0.000000 0.000000 -0.000000 0.000000 0.000000 0.000000 0.000000 -2.309063 0.000000 0.000000 2.309063 -0.000000 0.000000 0.000000 8.520374 0.000000 0.000000 1.905768 0.000000 -0.000000 -4.658254 0.000000 0.000000 -0.000000 0.000000 0.000000 8.520374 0.000000 0.000000 1.905768 0.000000 -0.000000 -4.658254 0.000000 0.000000 -0.000000 0.000000
-11.616896 89.170621 -1.086123 -134.347211 -5.063470 -0.834076 0.789690 0.880526 0.508900 0.454752 0.505113 0.315482 0.568879 0.630999 0.394982 0.454752 0.505113 0.315482 1.178011 24.754846 -0.891735 1.481539 1.090079 -1.236309 -2.016436 -0.031873 0.246343 2.491314 -1.461512 86.526526 27.841027 0.495851 12.702357 -1.368112 -4.723920 1.082354 1.336789 -0.054775 1.148344 -3.566331 -0.912806 -90.629516 -17.493448 4.092816 -6.375656 2.392600 -4.720684 -1.805062 -1.847436 7.695502 1.029427 -0.122875 0.741361 -0.583673 -0.543806 -3.281940 0.401044 0.009366 -0.058184 0.006522 3.397121 8.187814 0.389996 2.550442 0.401623 0.293009 2.500876 -3.896927 0.765788 -0.006384 0.051524 0.002993
-11.622395 89.170705 -1.083407 -134.354543 -5.066993 -0.831726 0.783867 0.886983 0.510663 0.451414 0.508691 0.316159 0.564712 0.635473 0.395829 0.451414 0.508691 0.316159 1.198823 24.756845 -0.899494 1.505937 1.093114 -1.249513 -2.035140 -0.028162 0.228191 2.528537 -1.425998 86.559183 27.363382 0.818765 12.558008 -1.296560 -4.732402 0.952792 1.335473 -0.066766 1.148894 -3.721282 -0.984756 -90.679205 -16.640762 4.016652 -6.151698 2.411195 -4.702663 -1.886092 -1.842080 7.698074 1.023839 -0.129426 0.745646 -0.584669 -0.538134 -3.284889 0.404085 0.008473 -0.056643 0.007200 3.393535 8.193321 0.380308 2.549115 0.400748 0.296603 2.508942 -3.896025 0.767551 -0.005861 0.048433 0.002927
-11.628681 89.170765 -1.080440 -134.362798 -5.070383 -0.830245 0.779005 0.893342 0.512355 0.448580 0.512320 0.317103 0.561174 0.640010 0.397009 0.448580 0.512320 0.317103 1.217196 24.758369 -0.906198 1.527442 1.095502 -1.261012 -2.059417 -0.025381 0.207603 2.566912 -1.387523 86.583540 26.893816 1.102722 12.445518 -1.216256 -4.759208 0.830990 1.331465 -0.077330 1.149344 -3.875687 -1.050857 -90.730625 -15.816134 3.925335 -5.929382 2.418718 -4.687693 -1.951710 -1.838953 7.701880 1.018599 -0.134427 0.747765 -0.585981 -0.532754 -3.286892 0.409192 0.007634 -0.055407 0.006481 3.390101 8.200421 0.372316 2.549700 0.396868 0.297215 2.513669 -3.893238 0.773812 -0.005557 0.045325 0.001088
-11.635743 89.170804 -1.077619 -134.371668 -5.075151 -0.829923 0.774510 0.899914 0.514183 0.445912 0.516018 0.318232 0.557843 0.644634 0.398421 0.445912 0.516018 0.318232 1.233582 24.759258 -0.911145 1.546383 1.097040 -1.270145 -2.084790 -0.020755 0.185934 2.610135 -1.348371 86.597987 26.430137 1.326759 12.361703 -1.124565 -4.796814 0.732266 1.329373 -0.083720 1.150241 -4.027511 -1.113957 -90.782995 -15.022806 3.822605 -5.713805 2.414997 -4.677145 -1.997740 -1.835892 7.707751 1.014137 -0.136429 0.749436 -0.587399 -0.530183 -3.288709 0.415731 0.006894 -0.054682 0.005066 3.388984 8.209392 0.365804 2.550806 0.392820 0.297853 2.514317 -3.890460 0.780253 -0.005211 0.042529 -0.000403
-11.643343 89.170772 -1.074831 -134.382919 -5.079737 -0.829605 0.770059 0.906578 0.516068 0.443256 0.519696 0.318942 0.554527 0.649233 0.399309 0.443256 0.519696 0.318942 1.249155 24.758831 -0.913757 1.563898 1.096904 -1.276552 -2.108151 -0.015254 0.164586 2.660749 -1.307568 86.605750 25.975149 1.488868 12.299043 -1.026641 -4.838187 0.664074 1.332746 -0.088181 1.152925 -4.166738 -1.173094 -90.834867 -14.263249 3.719401 -5.513952 2.399122 -4.671852 -2.023624 -1.830262 7.713686 1.008499 -0.137557 0.750724 -0.586718 -0.528183 -3.290442 0.421548 0.006455 -0.054004 0.003923 3.390739 8.217962 0.359285 2.554251 0.390051 0.297418 2.515358 -3.888652 0.786051 -0.004130 0.040069 -0.000095
-11.651339 89.170640 -1.072190 -134.394697 -5.083904 -0.829237 0.764740 0.913675 0.517775 0.440096 0.523536 0.319205 0.550581 0.654035 0.399638 0.440096 0.523536 0.319205 1.263800 24.756907 -0.914669 1.580008 1.094879 -1.280893 -2.127432 -0.010605 0.143689 2.716097 -1.263336 86.610540 25.535590 1.607999 12.253347 -0.932919 -4.885652 0.623025 1.339156 -0.094661 1.155484 -4.278846 -1.223249 -90.882254 -13.540900 3.627311 -5.333556 2.373362 -4.666269 -2.037418 -1.824021 7.720165 1.001537 -0.140032 0.750454 -0.583716 -0.524229 -3.291503 0.425161 0.006433 -0.053370 0.003945 3.390784 8.225653 0.352680 2.555998 0.388896 0.294578 2.524034 -3.887979 0.792945 -0.002753 0.038004 0.000867
-11.659443 89.170362 -1.069557 -134.404682 -5.085789 -0.828576 0.758022 0.920312 0.518680 0.436064 0.526918 0.319193 0.545544 0.658266 0.399621 0.436064 0.526918 0.319193 1.277115 24.754148 -0.913866 1.594274 1.091768 -1.283064 -2.140109 -0.004289 0.123418 2.772785 -1.217898 86.614159 25.118646 1.701380 12.214943 -0.859287 -4.928454 0.614630 1.346765 -0.102323 1.157096 -4.357620 -1.261358 -90.924426 -12.859854 3.555828 -5.171173 2.341310 -4.658979 -2.041809 -1.819693 7.725330 0.993590 -0.140781 0.748724 -0.580139 -0.520938 -3.292088 0.428390 0.006386 -0.052555 0.004251 3.385686 8.230172 0.345768 2.552810 0.389782 0.291181 2.537763 -3.888446 0.799877 -0.002036 0.036566 0.001630
-11.667196 89.169926 -1.067158 -134.416512 -5.084482 -0.829294 0.752577 0.925975 0.519745 0.432626 0.529671 0.319305 0.541249 0.661710 0.399759 0.432626 0.529671 0.319305 1.288873 24.750900 -0.910819 1.606332 1.087983 -1.282439 -2.152729 0.004587 0.106583 2.835641 -1.169501 86.615294 24.735948 1.778097 12.169023 -0.823634 -4.947109 0.643650 1.356026 -0.109949 1.160442 -4.416381 -1.289800 -90.963040 -12.218526 3.499690 -5.025729 2.301906 -4.651166 -2.035290 -1.815849 7.727023 0.986443 -0.139470 0.746970 -0.575493 -0.517210 -3.291549 0.432792 0.006144 -0.052133 0.003092 3.380565 8.231155 0.341120 2.550529 0.391971 0.288219 2.547425 -3.891167 0.804572 -0.001742 0.036621 0.002997
-11.674713 89.169380 -1.065371 -134.433111 -5.082251 -0.831424 0.750800 0.931744 0.521568 0.431226 0.532657 0.319595 0.539502 0.665443 0.400124 0.431226 0.532657 0.319595 1.298103 24.746838 -0.905397 1.615093 1.083095 -1.278653 -2.170248 0.012999 0.094943 2.901607 -1.111468 86.618208 24.398435 1.851526 12.103342 -0.830000 -4.935731 0.704300 1.367139 -0.118403 1.163934 -4.474222 -1.312850 -90.996448 -11.614294 3.446437 -4.894315 2.261851 -4.641141 -2.024173 -1.810919 7.726240 0.980134 -0.139142 0.747550 -0.569158 -0.509394 -3.290740 0.436754 0.005585 -0.052150 0.001521 3.380624 8.231364 0.338669 2.551290 0.395076 0.285848 2.553841 -3.896290 0.805955 -0.001017 0.037717 0.005994
